<?xml version="1.0" encoding="UTF-8" standalone="no"?>
<!-- Generated by IcoMoon.io -->

<svg
   xmlns:dc="http://purl.org/dc/elements/1.1/"
   xmlns:cc="http://creativecommons.org/ns#"
   xmlns:rdf="http://www.w3.org/1999/02/22-rdf-syntax-ns#"
   xmlns:svg="http://www.w3.org/2000/svg"
   xmlns="http://www.w3.org/2000/svg"
   xmlns:sodipodi="http://sodipodi.sourceforge.net/DTD/sodipodi-0.dtd"
   xmlns:inkscape="http://www.inkscape.org/namespaces/inkscape"
   version="1.1"
   width="20"
   height="20"
   viewBox="0 0 20 20"
   id="svg4"
   sodipodi:docname="book-chap.svg"
   inkscape:version="0.92.1 r15371">
  <metadata
     id="metadata10">
    <rdf:RDF>
      <cc:Work
         rdf:about="">
        <dc:format>image/svg+xml</dc:format>
        <dc:type
           rdf:resource="http://purl.org/dc/dcmitype/StillImage" />
      </cc:Work>
    </rdf:RDF>
  </metadata>
  <defs
     id="defs8" />
  <sodipodi:namedview
     pagecolor="#ffffff"
     bordercolor="#666666"
     borderopacity="1"
     objecttolerance="10"
     gridtolerance="10"
     guidetolerance="10"
     inkscape:pageopacity="0"
     inkscape:pageshadow="2"
     inkscape:window-width="1078"
     inkscape:window-height="1034"
     id="namedview6"
     showgrid="false"
     inkscape:zoom="11.8"
     inkscape:cx="-2.7542373"
     inkscape:cy="10"
     inkscape:window-x="1617"
     inkscape:window-y="413"
     inkscape:window-maximized="0"
     inkscape:current-layer="svg4" />
  <path
     d="M 4.2425847,16.943503 H 18 V 19 H 4.2425847 C 2.4858686,19 1.0677966,17.622147 1.0677966,15.915254 V 3.5762712 c 0,-1.7068927 1.418072,-3.08474578 3.1747881,-3.08474578 H 18 V 14.887006 H 4.2425847 c -0.5820444,0 -1.0582627,0.462712 -1.0582627,1.028248 0,0.565537 0.4762183,1.028249 1.0582627,1.028249 z m 2.1165255,-3.59887 V 2.0338983 c 0,-0.2879096 -0.2328178,-0.5141243 -0.5291314,-0.5141243 -0.2963135,0 -0.5291313,0.2262147 -0.5291313,0.5141243 V 13.344633 c 0,0.287909 0.2328178,0.514124 0.5291313,0.514124 0.2963136,0 0.5291314,-0.226215 0.5291314,-0.514124 z"
     id="path2"
     style="fill:#666666;stroke-width:1.04314768"
     inkscape:connector-curvature="0" />
  <path
     sodipodi:type="star"
     style="fill:#000000"
     id="path4491"
     sodipodi:sides="5"
     sodipodi:cx="13.135593"
     sodipodi:cy="8.1355934"
     sodipodi:r1="4.9181757"
     sodipodi:r2="2.4590878"
     sodipodi:arg1="-1.6052654"
     sodipodi:arg2="-0.9769469"
     inkscape:flatsided="false"
     inkscape:rounded="0"
     inkscape:randomized="0"
     d="m 12.966102,3.2203391 1.545488,2.8771799 3.246312,0.3579814 -2.258778,2.3589436 0.662705,3.198049 -2.94149,-1.419272 -2.836738,1.618521 L 10.824439,8.97564 8.4085331,6.7778922 11.622476,6.1971436 Z"
     inkscape:transform-center-x="0.052375762"
     inkscape:transform-center-y="-0.4195527" />
  <path
     style="fill:#666666;stroke-width:0.08474576"
     d="m 10.481826,11.928558 c -6.69e-4,-0.08656 0.08238,-0.787569 0.184564,-1.557811 L 10.852177,8.9703072 10.39219,8.5403825 C 10.139197,8.3039238 9.6410313,7.8472573 9.2851542,7.5255679 8.9292772,7.2038784 8.6331791,6.9025424 8.6271584,6.8559322 8.6211377,6.809322 9.2874145,6.6515903 10.107773,6.505417 10.928133,6.3592439 11.627667,6.2067015 11.662294,6.166434 11.696924,6.126167 12.00437,5.4720441 12.345512,4.7128286 l 0.620258,-1.3803917 0.197206,0.3471878 c 0.108464,0.1909533 0.448914,0.8216635 0.756557,1.4015782 0.307643,0.5799146 0.585077,1.0547243 0.616519,1.0551325 0.03144,4.068e-4 0.740115,0.076679 1.574826,0.1694915 0.834713,0.092812 1.53954,0.1687494 1.566283,0.1687494 0.02674,0 -0.332789,0.3908898 -0.798961,0.868644 -0.466172,0.4777543 -0.974876,1.0081529 -1.130454,1.1786637 l -0.282868,0.3100195 0.313324,1.4973255 c 0.172328,0.823528 0.294682,1.515966 0.271899,1.538749 -0.02278,0.02278 -0.279242,-0.07863 -0.569907,-0.225352 -0.290666,-0.146728 -0.920561,-0.450324 -1.399767,-0.674658 l -0.871284,-0.40788 -1.257114,0.720169 c -1.507631,0.863685 -1.468661,0.846501 -1.470203,0.648301 z"
     id="path4484"
     inkscape:connector-curvature="0" />
  <path
     style="fill:#666666;stroke-width:0.08474576"
     d="M 3.1790903,18.768974 C 2.2772241,18.416334 1.6430654,17.81393 1.3121481,16.995516 L 1.1186441,16.516949 V 9.779661 c 0,-6.2044563 0.011754,-6.7707996 0.148627,-7.1610169 C 1.4632674,2.0598675 1.9530875,1.4286902 2.4612788,1.0800575 3.2707355,0.52474893 2.9961867,0.54237288 10.837415,0.54237288 h 7.103263 V 7.7033898 14.864407 h -6.995734 c -7.6010135,0 -7.2975215,-0.01861 -7.6157094,0.467006 -0.1916662,0.292519 -0.1914882,0.808368 3.898e-4,1.133194 0.3191451,0.540268 -0.00303,0.518444 7.6535226,0.518444 h 6.957531 v 0.974576 0.974576 l -7.182203,-0.004 C 4.0014162,18.924508 3.5527603,18.91508 3.1790903,18.768971 Z m 3.0878589,-5.10776 c 0.1381273,-0.159745 0.148305,-0.569522 0.148305,-5.9710648 V 1.8906009 L 6.2072419,1.6825886 C 5.9572664,1.4326131 5.7399402,1.4190196 5.4712529,1.6365536 L 5.2711864,1.7985308 5.2482812,7.5587193 c -0.014767,3.7136037 0.00738,5.8398387 0.062327,5.9843657 0.1532232,0.403007 0.6562845,0.465146 0.956341,0.118129 z M 12.343786,4.6292647 c 0.341527,-0.7585654 0.629537,-1.3687349 0.640022,-1.3559322 0.01049,0.012803 0.351798,0.6429811 0.758473,1.4003963 0.406675,0.7574153 0.75497,1.3771187 0.773988,1.3771187 0.01902,0 0.03458,-1.220339 0.03458,-2.7118644 V 0.62711864 H 13.025424 11.5 V 3.4418886 c 0,2.3321018 0.0191,2.7934911 0.111414,2.690678 0.06128,-0.068251 0.390844,-0.7447364 0.732372,-1.5033019 z"
     id="path4486"
     inkscape:connector-curvature="0" />
  <path
     style="fill:#cccccc;stroke-width:0.08474576"
     d="M 3.1010557,18.732695 C 2.2448792,18.380496 1.7215883,17.887186 1.3390774,17.071664 L 1.1186441,16.601695 V 9.779661 2.9576271 L 1.3077056,2.4915254 C 1.5847162,1.8085992 2.1586359,1.197457 2.8362787,0.86381413 l 0.5667998,-0.27906837 7.2687995,-0.0230221 7.2688,-0.0230221 V 7.6992165 14.859731 l -7.055085,0.02352 c -6.5780869,0.02193 -7.0699581,0.03363 -7.2750738,0.173017 -0.2794639,0.189909 -0.4156039,0.488812 -0.4156039,0.91248 0,0.435432 0.3353196,0.823624 0.8050847,0.932029 0.1917233,0.04424 3.2933824,0.0791 7.139831,0.08025 l 6.800847,0.002 v 0.974576 0.974576 l -7.182203,-0.002 -7.1822038,-0.002 -0.4752155,-0.195485 z m 3.1073231,-5.0055 C 6.3680799,13.610442 6.3735496,13.435997 6.3957745,7.7504729 L 6.4186676,1.8940143 6.2089486,1.6842953 C 5.9573297,1.4326764 5.7404136,1.4186373 5.4712529,1.6365506 L 5.2711864,1.7985249 5.2455371,7.2509574 c -0.014107,2.9988376 -0.00183,5.6526676 0.027291,5.8973986 0.029117,0.244731 0.1101205,0.502147 0.1800076,0.572034 0.1603969,0.160397 0.5407653,0.163823 0.7555432,0.0068 z M 12.267793,4.7584746 c 0.341254,-0.7574153 0.642899,-1.4049215 0.670321,-1.4389027 0.02742,-0.033981 0.386128,0.5666543 0.79712,1.3347457 0.410992,0.7680915 0.762639,1.3965299 0.781436,1.3965299 0.0188,0 0.03418,-1.220339 0.03418,-2.7118644 V 0.62711864 H 13.025424 11.5 V 3.3813559 c 0,1.5148305 0.03315,2.7542373 0.07367,2.7542373 0.04052,0 0.352873,-0.6197034 0.694127,-1.3771186 z"
     id="path4488"
     inkscape:connector-curvature="0" />
</svg>
